<svg width="927" height="522" viewBox="0 0 927 522" fill="none" xmlns="http://www.w3.org/2000/svg">
<g clip-path="url(#clip0_14_11)">
<path d="M565.075 87.5904C585.835 87.5904 605.449 90.6622 622.828 96.1183C590.124 96.0706 520.329 99.0412 475.188 138.165C422.393 104.658 385.592 88.8495 325.388 95.514C363.588 74.9431 435.981 80.9408 473.362 111.549C496.768 96.7552 529.213 87.5904 565.075 87.5904Z" fill="#0E3B43"/>
<path d="M431.618 -1.04834C482.412 -1.04834 523.583 37.4147 523.583 84.855L523.573 85.6736C504.132 89.7217 486.746 96.5916 472.645 105.503C439.722 78.5507 379.639 70.6866 339.677 83.2506C340.591 36.5485 381.398 -1.04834 431.618 -1.04834Z" fill="#0E3B43"/>
<path d="M316.303 83.2L313.05 82.5452L309.822 83.1018L313.015 83.7477L316.303 83.2Z" fill="#0E3B43"/>
<path d="M335.993 83.4888L332.723 82.8369L317.074 83.212L332.714 84.0513L335.993 83.4888Z" fill="#0E3B43"/>
<path d="M395.486 2.27057L394.377 -3.05151L383.042 -26.1704L392.293 -2.26868L395.486 2.27057Z" fill="#0E3B43"/>
<path d="M380.356 9.63155L378.253 4.58034L362.706 -16.2913L376.354 5.69357L380.356 9.63155Z" fill="#0E3B43"/>
<path d="M387.918 5.41082L386.962 2.41343L379.133 -10.2458L385.824 2.98493L387.918 5.41082Z" fill="#0E3B43"/>
<path d="M366.871 19.3828L363.837 14.7602L344.565 -3.19739L362.183 16.174L366.871 19.3828Z" fill="#0E3B43"/>
<path d="M373.505 13.9743L372.001 11.1853L361.881 0.0291748L370.985 11.9324L373.505 13.9743Z" fill="#0E3B43"/>
<path d="M355.45 31.2205L351.591 27.1753L329.209 12.7063L350.23 28.8422L355.45 31.2205Z" fill="#0E3B43"/>
<path d="M346.282 12.5188L344.287 10.0275L341.464 8.47668L343.421 10.9204L346.282 12.5188Z" fill="#0E3B43"/>
<path d="M360.953 24.7941L358.943 22.2968L346.862 13.001L358.082 23.2106L360.953 24.7941Z" fill="#0E3B43"/>
<path d="M346.467 44.7638L341.898 41.4241L317.122 30.899L340.878 43.2904L346.467 44.7638Z" fill="#0E3B43"/>
<path d="M333.89 27.8808L331.452 25.7645L328.374 24.6989L330.77 26.7824L333.89 27.8808Z" fill="#0E3B43"/>
<path d="M350.661 37.5279L348.207 35.4056L334.546 28.2618L347.531 36.4414L350.661 37.5279Z" fill="#0E3B43"/>
<path d="M340.206 59.5841L335.072 57.0541L308.684 50.8063L334.425 59.0632L340.206 59.5841Z" fill="#0E3B43"/>
<path d="M324.617 45.0585L321.813 43.3797L318.582 42.8409L321.335 44.4899L324.617 45.0585Z" fill="#0E3B43"/>
<path d="M342.952 51.7677L340.132 50.086L325.334 45.3235L339.667 51.2171L342.952 51.7677Z" fill="#0E3B43"/>
<path d="M336.863 75.2109L331.325 73.5709L304.172 71.7998L331.07 75.6544L336.863 75.2109Z" fill="#0E3B43"/>
<path d="M318.757 63.4983L315.675 62.3136L312.393 62.3225L315.417 63.4893L318.757 63.4983Z" fill="#0E3B43"/>
<path d="M338.08 67.0582L334.98 65.8765L319.512 63.6411L334.741 67.0612L338.08 67.0582Z" fill="#0E3B43"/>
<path d="M526.524 72.0023L532.327 72.291L559.087 67.6654L532.008 70.2193L526.524 72.0023Z" fill="#0E3B43"/>
<path d="M547.189 79.1192L550.503 79.5418L553.67 78.7649L550.423 78.3423L547.189 79.1192Z" fill="#0E3B43"/>
<path d="M527.531 80.1699L530.835 80.6015L546.414 79.1549L530.762 79.399L527.531 80.1699Z" fill="#0E3B43"/>
<path d="M522.579 56.5004L528.337 55.8247L553.794 46.8325L527.636 53.8364L522.579 56.5004Z" fill="#0E3B43"/>
<path d="M544.267 60.0753L547.603 59.9443L550.576 58.6525L547.3 58.7686L544.267 60.0753Z" fill="#0E3B43"/>
<path d="M525.112 64.3763L528.455 64.2483L543.505 60.2389L528.149 63.0815L525.112 64.3763Z" fill="#0E3B43"/>
<path d="M515.744 41.9003L521.282 40.2811L544.62 27.2051L520.211 38.4475L515.744 41.9003Z" fill="#0E3B43"/>
<path d="M537.769 41.817L541.02 41.1354L543.703 39.3733L540.503 40.0311L537.769 41.817Z" fill="#0E3B43"/>
<path d="M519.733 49.2316L523 48.5529L537.049 42.1057L522.477 47.4546L519.733 49.2316Z" fill="#0E3B43"/>
<path d="M506.238 28.6726L511.385 26.1574L531.861 9.41431L509.982 24.5263L506.238 28.6726Z" fill="#0E3B43"/>
<path d="M527.897 24.937L530.972 23.7166L533.273 21.5437L530.252 22.7254L527.897 24.937Z" fill="#0E3B43"/>
<path d="M511.566 35.2239L514.644 34.0125L527.247 25.3358L513.924 33.0153L511.566 35.2239Z" fill="#0E3B43"/>
<path d="M494.371 17.2277L498.95 13.8999L515.922 -5.97156L497.265 12.5277L494.371 17.2277Z" fill="#0E3B43"/>
<path d="M514.973 9.95605L517.77 8.25048L519.615 5.72339L516.875 7.39026L514.973 9.95605Z" fill="#0E3B43"/>
<path d="M500.859 22.7909L503.657 21.0883L514.412 10.462L502.755 20.2281L500.859 22.7909Z" fill="#0E3B43"/>
<path d="M480.516 7.93794L484.391 3.90173L497.306 -18.473L482.467 2.83315L480.516 7.93794Z" fill="#0E3B43"/>
<path d="M487.96 12.3372L490.388 10.1941L498.95 -2.04846L489.337 9.50057L487.96 12.3372Z" fill="#0E3B43"/>
<path d="M465.112 1.09483L468.159 -3.51883L476.616 -27.6825L466.059 -4.25106L465.112 1.09483Z" fill="#0E3B43"/>
<path d="M473.273 4.18447L475.255 1.67226L481.354 -11.7877L474.092 1.16624L473.273 4.18447Z" fill="#0E3B43"/>
<path d="M130.315 331.083C132.911 331.083 135.074 331.892 136.805 333.508C138.535 335.125 139.4 337.065 139.4 339.328V355.817C139.4 358.08 138.535 360.02 136.805 361.636C135.074 363.253 132.911 364.061 130.315 364.061H119.931V396.796C119.931 399.059 119.023 401.04 117.205 402.737C115.388 404.434 113.268 405.283 110.845 405.283H91.3761C88.9532 405.283 86.8333 404.434 85.0161 402.737C83.199 401.04 82.2904 399.059 82.2904 396.796V364.061H9.08569C6.66284 364.061 4.54285 363.253 2.72571 361.636C0.908569 360.02 0 358.08 0 355.817V337.873C0 336.256 0.519182 334.721 1.55755 333.266L73.9835 231.18C74.6757 230.049 75.7141 229.119 77.0986 228.392C78.4831 227.664 79.9541 227.301 81.5116 227.301H110.845C113.268 227.301 115.388 228.149 117.205 229.847C119.023 231.544 119.931 233.524 119.931 235.787V331.083H130.315V331.083ZM44.3901 331.083H82.2904V278.707L44.3901 331.083ZM230.257 409.163C204.298 409.163 185.521 399.221 173.926 379.337C165.1 364.142 160.687 343.773 160.687 318.232C160.687 292.69 165.1 272.322 173.926 257.126C185.521 237.242 204.298 227.301 230.257 227.301C255.697 227.786 274.388 237.808 286.329 257.368C295.155 272.079 299.568 292.286 299.568 317.989C299.568 343.692 295.155 364.142 286.329 379.337C274.907 399.221 256.217 409.163 230.257 409.163ZM198.328 318.232C198.328 338.439 201.183 353.311 206.894 362.849C209.144 366.89 212.216 369.84 216.11 371.699C220.004 373.558 224.719 374.488 230.257 374.488C237.699 374.326 243.67 372.305 248.169 368.426C254.745 362.929 258.812 353.473 260.37 340.055C261.408 332.457 261.927 325.183 261.927 318.232C261.927 298.025 259.159 283.152 253.621 273.615C251.198 269.573 248.083 266.623 244.275 264.764C240.468 262.905 235.795 261.976 230.257 261.976C224.719 261.976 220.004 262.905 216.11 264.764C212.216 266.623 209.144 269.573 206.894 273.615C201.183 282.991 198.328 297.863 198.328 318.232V318.232ZM350.189 227.301C352.784 227.301 354.991 228.149 356.808 229.847C358.625 231.544 359.534 233.605 359.534 236.03V253.731C359.534 256.156 358.625 258.217 356.808 259.915C354.991 261.612 352.784 262.461 350.189 262.461H323.451C321.028 262.461 318.908 261.612 317.091 259.915C315.273 258.217 314.365 256.156 314.365 253.731V236.03C314.365 233.605 315.273 231.544 317.091 229.847C318.908 228.149 321.028 227.301 323.451 227.301H350.189ZM466.226 227.301C468.649 227.301 470.769 228.149 472.586 229.847C474.403 231.544 475.312 233.605 475.312 236.03V253.731C475.312 256.156 474.403 258.217 472.586 259.915C470.769 261.612 468.649 262.461 466.226 262.461H414.048V400.191C414.048 402.454 413.139 404.434 411.322 406.132C409.505 407.829 407.385 408.678 404.962 408.678H384.974C382.378 408.678 380.171 407.829 378.354 406.132C376.537 404.434 375.628 402.454 375.628 400.191V236.03C375.628 233.605 376.537 231.544 378.354 229.847C380.171 228.149 382.378 227.301 384.974 227.301H466.226V227.301ZM622.24 336.66L660.919 392.189C661.785 393.482 662.26 394.937 662.347 396.554C662.434 398.17 662.087 399.625 661.309 400.918C660.53 402.212 659.405 403.262 657.934 404.071C656.463 404.879 654.949 405.283 653.391 405.283H630.028C628.47 405.283 626.999 404.919 625.615 404.192C624.23 403.464 623.192 402.535 622.5 401.403L583.561 343.45H537.613V396.796C537.613 399.059 536.705 401.04 534.888 402.737C533.071 404.434 530.951 405.283 528.528 405.283H509.058C506.636 405.283 504.515 404.434 502.698 402.737C500.881 401.04 499.973 399.059 499.973 396.796V235.787C499.973 233.524 500.881 231.544 502.698 229.847C504.515 228.149 506.636 227.301 509.058 227.301H591.608C611.51 227.301 627.648 232.595 640.022 243.183C652.396 253.772 658.583 268.119 658.583 286.224C658.583 297.863 655.857 307.845 650.406 316.171C644.954 324.496 636.95 330.76 626.394 334.963C625.701 335.286 624.576 335.771 623.019 336.418L622.24 336.66ZM537.613 261.491V309.26H588.234C603.117 309.26 613.241 305.299 618.606 297.378C620.336 294.468 621.202 290.75 621.202 286.224C621.202 278.626 618.519 272.645 613.154 268.28C607.27 263.754 599.31 261.491 589.272 261.491H537.613V261.491ZM720.885 227.301C723.308 227.301 725.428 228.149 727.245 229.847C729.062 231.544 729.97 233.524 729.97 235.787V396.796C729.97 399.059 729.062 401.04 727.245 402.737C725.428 404.434 723.308 405.283 720.885 405.283H701.415C698.993 405.283 696.873 404.434 695.055 402.737C693.238 401.04 692.33 399.059 692.33 396.796V235.787C692.33 233.524 693.238 231.544 695.055 229.847C696.873 228.149 698.993 227.301 701.415 227.301H720.885V227.301ZM858.728 227.301C879.149 227.301 895.633 232.756 908.18 243.668C920.727 254.58 927 269.21 927 287.558C927 305.905 920.813 320.535 908.439 331.447C896.066 342.359 879.495 347.815 858.728 347.815H809.665V396.796C809.665 399.059 808.756 401.04 806.939 402.737C805.122 404.434 803.002 405.283 800.579 405.283H781.11C778.687 405.283 776.567 404.434 774.75 402.737C772.933 401.04 772.024 399.059 772.024 396.796V235.787C772.024 233.524 772.933 231.544 774.75 229.847C776.567 228.149 778.687 227.301 781.11 227.301H858.728V227.301ZM809.665 261.491V313.867H857.43C868.679 313.867 876.812 311.604 881.831 307.077C886.85 302.551 889.359 296.044 889.359 287.558C889.359 279.071 886.85 272.726 881.831 268.523C876.466 263.835 868.333 261.491 857.43 261.491H809.665V261.491Z" fill="#0E3B43"/>
<path d="M140.819 485.737C141.013 486.234 140.722 486.506 140.238 486.506H137.525C137.04 486.506 136.798 486.234 136.604 485.737L134.763 479.853H121.973L120.132 485.737C119.987 486.234 119.696 486.506 119.211 486.506H116.498C116.014 486.506 115.772 486.234 115.917 485.737L125.703 455.551C125.849 455.099 126.188 454.827 126.624 454.827H130.064C130.5 454.827 130.839 455.099 130.984 455.551L140.819 485.737ZM123.039 476.414H133.697L128.368 459.624L123.039 476.414ZM186.08 469.626C186.613 469.626 186.904 469.943 186.904 470.395V477.319C186.904 483.338 183.561 486.732 177.166 486.732H173.435C167.04 486.732 163.697 483.338 163.697 477.319V464.014C163.697 457.995 167.04 454.601 173.435 454.601H177.166C183.27 454.601 186.613 457.678 186.904 463.381C186.904 463.878 186.613 464.15 186.08 464.15H183.561C183.028 464.15 182.689 463.878 182.689 463.381C182.495 459.67 180.8 458.176 177.166 458.176H173.435C169.511 458.176 167.912 459.851 167.912 464.014V477.319C167.912 481.483 169.511 483.157 173.435 483.157H177.166C181.09 483.157 182.689 481.483 182.689 477.319V473.02H178.232C177.699 473.02 177.408 472.703 177.408 472.251V470.395C177.408 469.943 177.699 469.626 178.232 469.626H186.08V469.626ZM230.179 458.402H215.596V469.173H226.739C227.224 469.173 227.466 469.399 227.466 469.852V472.07C227.466 472.522 227.224 472.748 226.739 472.748H215.596V482.931H230.421C230.906 482.931 231.148 483.157 231.148 483.61V485.827C231.148 486.28 230.906 486.506 230.421 486.506H212.108C211.623 486.506 211.381 486.28 211.381 485.827V455.506C211.381 455.054 211.623 454.827 212.108 454.827H230.179C230.663 454.827 230.906 455.054 230.906 455.506V457.724C230.906 458.176 230.663 458.402 230.179 458.402V458.402ZM276.845 454.827C277.33 454.827 277.572 455.054 277.572 455.506V485.827C277.572 486.28 277.33 486.506 276.845 486.506H272.582C272.194 486.506 271.903 486.37 271.71 486.008L259.113 460.575V485.827C259.113 486.28 258.871 486.506 258.386 486.506H255.625C255.14 486.506 254.898 486.28 254.898 485.827V455.506C254.898 455.054 255.14 454.827 255.625 454.827H259.888C260.276 454.827 260.567 454.963 260.76 455.325L273.357 480.713V455.506C273.357 455.054 273.599 454.827 274.084 454.827H276.845V454.827ZM324.432 476.867C324.965 476.867 325.255 477.138 325.255 477.636C324.965 483.61 321.67 486.732 315.517 486.732H311.787C305.392 486.732 302.049 483.338 302.049 477.319V464.014C302.049 457.995 305.392 454.601 311.787 454.601H315.517C321.67 454.601 324.965 457.724 325.255 463.697C325.255 464.195 324.965 464.467 324.432 464.467H321.913C321.38 464.467 321.041 464.195 321.041 463.697C320.847 459.67 319.199 458.176 315.517 458.176H311.787C307.863 458.176 306.264 459.851 306.264 464.014V477.319C306.264 481.483 307.863 483.157 311.787 483.157H315.517C319.199 483.157 320.847 481.664 321.041 477.636C321.041 477.138 321.38 476.867 321.913 476.867H324.432V476.867ZM349.733 455.506C349.733 455.054 349.975 454.827 350.459 454.827H353.269C353.754 454.827 353.996 455.054 353.996 455.506V485.827C353.996 486.28 353.754 486.506 353.269 486.506H350.459C349.975 486.506 349.733 486.28 349.733 485.827V455.506V455.506ZM402.261 485.737C402.455 486.234 402.164 486.506 401.68 486.506H398.967C398.482 486.506 398.24 486.234 398.046 485.737L396.205 479.853H383.415L381.574 485.737C381.428 486.234 381.138 486.506 380.653 486.506H377.94C377.456 486.506 377.213 486.234 377.359 485.737L387.145 455.551C387.291 455.099 387.63 454.827 388.066 454.827H391.506C391.942 454.827 392.281 455.099 392.426 455.551L402.261 485.737ZM384.481 476.414H395.139L389.81 459.624L384.481 476.414ZM471.66 454.827C477.862 454.827 481.156 457.995 481.156 463.788V477.545C481.156 483.338 477.862 486.506 471.66 486.506H461.292H459.548C459.064 486.506 458.821 486.28 458.821 485.827V455.506C458.821 455.054 459.064 454.827 459.548 454.827H462.31H471.66V454.827ZM476.941 477.545V463.788C476.941 459.851 475.342 458.402 471.66 458.402H463.036V482.931H471.66C475.342 482.931 476.941 481.483 476.941 477.545ZM523.946 458.402H509.364V469.173H520.507C520.991 469.173 521.233 469.399 521.233 469.852V472.07C521.233 472.522 520.991 472.748 520.507 472.748H509.364V482.931H524.189C524.673 482.931 524.915 483.157 524.915 483.61V485.827C524.915 486.28 524.673 486.506 524.189 486.506H505.875C505.391 486.506 505.149 486.28 505.149 485.827V455.506C505.149 455.054 505.391 454.827 505.875 454.827H523.946C524.431 454.827 524.673 455.054 524.673 455.506V457.724C524.673 458.176 524.431 458.402 523.946 458.402V458.402ZM580.362 455.597C580.216 455.099 580.458 454.827 580.943 454.827H583.656C584.141 454.827 584.431 455.099 584.577 455.597L592.813 481.709L601.097 455.597C601.243 455.099 601.485 454.827 601.969 454.827H604.682C605.167 454.827 605.458 455.099 605.312 455.597L595.477 485.782C595.332 486.234 594.993 486.506 594.557 486.506H591.069C590.633 486.506 590.293 486.234 590.148 485.782L580.362 455.597ZM628.723 455.506C628.723 455.054 628.966 454.827 629.45 454.827H632.26C632.745 454.827 632.987 455.054 632.987 455.506V485.827C632.987 486.28 632.745 486.506 632.26 486.506H629.45C628.966 486.506 628.723 486.28 628.723 485.827V455.506V455.506ZM681.252 485.737C681.446 486.234 681.155 486.506 680.671 486.506H677.957C677.473 486.506 677.231 486.234 677.037 485.737L675.196 479.853H662.406L660.565 485.737C660.419 486.234 660.129 486.506 659.644 486.506H656.931C656.447 486.506 656.204 486.234 656.35 485.737L666.136 455.551C666.282 455.099 666.621 454.827 667.057 454.827H670.496C670.933 454.827 671.272 455.099 671.417 455.551L681.252 485.737ZM663.472 476.414H674.13L668.801 459.624L663.472 476.414ZM704.421 481.573C704.712 481.256 705.099 481.302 705.438 481.618C706.553 482.523 708.054 483.202 710.138 483.202C715.079 483.202 716.824 480.351 716.824 476.414V455.506C716.824 455.054 717.066 454.827 717.55 454.827H720.312C720.796 454.827 721.039 455.054 721.039 455.506V476.64C721.039 482.795 717.066 486.823 710.138 486.823C706.843 486.823 704.276 485.827 702.435 484.153C702.095 483.881 702.192 483.564 702.483 483.247L704.421 481.573ZM764.798 458.402H750.215V469.173H761.358C761.843 469.173 762.085 469.399 762.085 469.852V472.07C762.085 472.522 761.843 472.748 761.358 472.748H750.215V482.931H765.04C765.525 482.931 765.767 483.157 765.767 483.61V485.827C765.767 486.28 765.525 486.506 765.04 486.506H746.727C746.242 486.506 746 486.28 746 485.827V455.506C746 455.054 746.242 454.827 746.727 454.827H764.798C765.282 454.827 765.525 455.054 765.525 455.506V457.724C765.525 458.176 765.282 458.402 764.798 458.402V458.402ZM800.37 468.268C805.699 469.354 811.125 470.983 811.125 477.455C811.125 483.474 807.782 486.732 801.387 486.732H797.802C791.697 486.732 788.354 483.655 788.064 478.088C788.064 477.591 788.354 477.319 788.887 477.319H791.407C791.94 477.319 792.279 477.591 792.279 478.088C792.473 481.664 794.12 483.157 797.802 483.157H801.387C805.311 483.157 806.91 481.618 806.91 477.455C806.91 473.291 803.906 472.703 800.273 471.888L798.141 471.436C792.424 470.259 788.451 468.585 788.451 462.837C788.451 457.226 791.891 454.601 798.238 454.601H800.612C806.619 454.601 809.817 457.678 810.108 463.109C810.156 463.607 809.817 463.878 809.284 463.878H806.765C806.28 463.878 805.941 463.607 805.893 463.109C805.699 459.624 804.148 458.176 800.612 458.176H798.238C794.362 458.176 792.666 459.036 792.666 462.837C792.666 466.503 794.41 467.001 798.238 467.816L800.37 468.268Z" fill="#0E3B43"/>
</g>
<defs>
<clipPath id="clip0_14_11">
<rect width="927" height="522" fill="white"/>
</clipPath>
</defs>
</svg>
