<svg width="275" height="182" viewBox="0 0 275 182" fill="none" xmlns="http://www.w3.org/2000/svg">
<g clip-path="url(#clip0_28_72)" filter="url(#filter0_d_28_72)">
<path d="M166.756 30.5393C172.736 30.5393 178.385 31.6103 183.391 33.5126C173.971 33.496 153.868 34.5317 140.867 48.1726C125.66 36.49 115.06 30.9783 97.7202 33.3019C108.723 26.1297 129.574 28.2208 140.341 38.8926C147.082 33.7347 156.427 30.5393 166.756 30.5393Z" fill="#FEFEFE"/>
<path d="M128.317 -0.365479C142.947 -0.365479 154.805 13.045 154.805 29.5855L154.803 29.8709C149.203 31.2823 144.195 33.6775 140.134 36.7847C130.651 27.3874 113.346 24.6456 101.836 29.0261C102.099 12.743 113.853 -0.365479 128.317 -0.365479Z" fill="#FEFEFE"/>
<path d="M95.1034 29.0085L94.1663 28.7802L93.2366 28.9742L94.1562 29.1994L95.1034 29.0085Z" fill="#FEFEFE"/>
<path d="M100.775 29.1091L99.8331 28.8818L95.3257 29.0126L99.8303 29.3053L100.775 29.1091Z" fill="#FEFEFE"/>
<path d="M117.91 0.791691L117.591 -1.0639L114.326 -9.12451L116.991 -0.790958L117.91 0.791691Z" fill="#FEFEFE"/>
<path d="M113.553 3.35817L112.947 1.59702L108.469 -5.68005L112.4 1.98516L113.553 3.35817Z" fill="#FEFEFE"/>
<path d="M115.73 1.88657L115.455 0.841507L113.2 -3.57227L115.127 1.04077L115.73 1.88657Z" fill="#FEFEFE"/>
<path d="M109.668 6.75802L108.795 5.14632L103.244 -1.11475L108.318 5.63927L109.668 6.75802Z" fill="#FEFEFE"/>
<path d="M111.579 4.87236L111.146 3.89994L108.231 0.0102539L110.853 4.16043L111.579 4.87236Z" fill="#FEFEFE"/>
<path d="M106.379 10.8853L105.267 9.47493L98.8206 4.43018L104.875 10.0561L106.379 10.8853Z" fill="#FEFEFE"/>
<path d="M103.738 4.3649L103.164 3.49626L102.351 2.95557L102.914 3.8076L103.738 4.3649Z" fill="#FEFEFE"/>
<path d="M107.964 8.64473L107.385 7.77402L103.905 4.53296L107.137 8.09262L107.964 8.64473Z" fill="#FEFEFE"/>
<path d="M103.791 15.6074L102.475 14.443L95.3394 10.7733L102.182 15.0937L103.791 15.6074Z" fill="#FEFEFE"/>
<path d="M100.169 9.72098L99.4667 8.98311L98.5801 8.61157L99.2703 9.33803L100.169 9.72098Z" fill="#FEFEFE"/>
<path d="M104.999 13.0844L104.293 12.3445L100.358 9.85376L104.098 12.7056L104.999 13.0844Z" fill="#FEFEFE"/>
<path d="M101.988 20.7746L100.509 19.8925L92.9089 17.7141L100.323 20.593L101.988 20.7746Z" fill="#FEFEFE"/>
<path d="M97.4981 15.7101L96.6904 15.1247L95.7598 14.9369L96.5528 15.5118L97.4981 15.7101Z" fill="#FEFEFE"/>
<path d="M102.779 18.0493L101.967 17.463L97.7046 15.8025L101.833 17.8573L102.779 18.0493Z" fill="#FEFEFE"/>
<path d="M101.025 26.223L99.4301 25.6512L91.6094 25.0337L99.3566 26.3776L101.025 26.223Z" fill="#FEFEFE"/>
<path d="M95.8102 22.1392L94.9226 21.7262L93.9773 21.7293L94.8483 22.1361L95.8102 22.1392Z" fill="#FEFEFE"/>
<path d="M101.376 23.3805L100.483 22.9685L96.0278 22.1891L100.414 23.3815L101.376 23.3805Z" fill="#FEFEFE"/>
<path d="M155.653 25.1042L157.324 25.2049L165.032 23.5922L157.232 24.4826L155.653 25.1042Z" fill="#FEFEFE"/>
<path d="M161.604 27.5857L162.559 27.7331L163.471 27.4622L162.536 27.3148L161.604 27.5857Z" fill="#FEFEFE"/>
<path d="M155.943 27.952L156.894 28.1025L161.382 27.5981L156.873 27.6832L155.943 27.952Z" fill="#FEFEFE"/>
<path d="M154.516 19.6994L156.175 19.4638L163.507 16.3286L155.973 18.7706L154.516 19.6994Z" fill="#FEFEFE"/>
<path d="M160.763 20.9458L161.724 20.9001L162.58 20.4497L161.637 20.4902L160.763 20.9458Z" fill="#FEFEFE"/>
<path d="M155.246 22.4455L156.209 22.4009L160.543 21.0029L156.121 21.994L155.246 22.4455Z" fill="#FEFEFE"/>
<path d="M152.548 14.609L154.143 14.0444L160.865 9.48535L153.834 13.4051L152.548 14.609Z" fill="#FEFEFE"/>
<path d="M158.891 14.5799L159.828 14.3423L160.6 13.7279L159.679 13.9573L158.891 14.5799Z" fill="#FEFEFE"/>
<path d="M153.697 17.1652L154.637 16.9285L158.684 14.6807L154.487 16.5456L153.697 17.1652Z" fill="#FEFEFE"/>
<path d="M149.81 9.99705L151.292 9.12011L157.19 3.28247L150.888 8.55139L149.81 9.99705Z" fill="#FEFEFE"/>
<path d="M156.048 8.69457L156.934 8.26907L157.596 7.51147L156.726 7.92348L156.048 8.69457Z" fill="#FEFEFE"/>
<path d="M151.344 12.2812L152.231 11.8588L155.861 8.83362L152.023 11.5111L151.344 12.2812Z" fill="#FEFEFE"/>
<path d="M146.392 6.0066L147.711 4.84634L152.599 -2.08203L147.225 4.36791L146.392 6.0066Z" fill="#FEFEFE"/>
<path d="M152.325 3.47136L153.131 2.8767L153.663 1.99561L152.873 2.57677L152.325 3.47136Z" fill="#FEFEFE"/>
<path d="M148.26 7.94628L149.066 7.35266L152.164 3.64771L148.807 7.05273L148.26 7.94628Z" fill="#FEFEFE"/>
<path d="M142.401 2.76762L143.517 1.36036L147.237 -6.4408L142.963 0.987794L142.401 2.76762Z" fill="#FEFEFE"/>
<path d="M144.545 4.30159L145.245 3.55437L147.711 -0.714111L144.942 3.31256L144.545 4.30159Z" fill="#FEFEFE"/>
<path d="M137.964 0.38174L138.842 -1.22685L141.278 -9.65173L138.237 -1.48215L137.964 0.38174Z" fill="#FEFEFE"/>
<path d="M140.315 1.45898L140.886 0.58308L142.643 -4.10986L140.551 0.406653L140.315 1.45898Z" fill="#FEFEFE"/>
<path d="M41.534 115.435C42.2817 115.435 42.9048 115.717 43.4033 116.281C43.9017 116.844 44.1509 117.521 44.1509 118.31V124.059C44.1509 124.848 43.9017 125.524 43.4033 126.088C42.9048 126.651 42.2817 126.933 41.534 126.933H38.5433V138.347C38.5433 139.136 38.2816 139.826 37.7582 140.418C37.2348 141.01 36.6242 141.306 35.9264 141.306H30.3187C29.6208 141.306 29.0102 141.01 28.4868 140.418C27.9635 139.826 27.7018 139.136 27.7018 138.347V126.933H6.61691C5.91907 126.933 5.30846 126.651 4.78507 126.088C4.26169 125.524 4 124.848 4 124.059V117.802C4 117.239 4.14954 116.703 4.44861 116.196L25.3092 80.6031C25.5085 80.2085 25.8076 79.8844 26.2064 79.6308C26.6052 79.3772 27.0288 79.2504 27.4775 79.2504H35.9264C36.6242 79.2504 37.2348 79.5463 37.7582 80.1381C38.2816 80.7299 38.5433 81.4203 38.5433 82.2094V115.435H41.534ZM16.7855 115.435H27.7018V97.1737L16.7855 115.435ZM70.3201 142.658C62.8432 142.658 57.4349 139.192 54.0952 132.259C51.5531 126.961 50.282 119.86 50.282 110.954C50.282 102.049 51.5531 94.9473 54.0952 89.6493C57.4349 82.7167 62.8432 79.2504 70.3201 79.2504C77.6474 79.4195 83.0308 82.9139 86.4702 89.7338C89.0123 94.8628 90.2834 101.908 90.2834 110.87C90.2834 119.831 89.0123 126.961 86.4702 132.259C83.1804 139.192 77.797 142.658 70.3201 142.658ZM61.1235 110.954C61.1235 118 61.946 123.185 63.5909 126.51C64.2389 127.919 65.1236 128.948 66.2452 129.596C67.3667 130.244 68.725 130.569 70.3201 130.569C72.4635 130.512 74.1831 129.808 75.4791 128.455C77.3733 126.539 78.5447 123.241 78.9933 118.563C79.2924 115.914 79.4419 113.378 79.4419 110.954C79.4419 103.909 78.6444 98.7236 77.0493 95.3982C76.3514 93.9892 75.4542 92.9606 74.3576 92.3124C73.261 91.6642 71.9152 91.3401 70.3201 91.3401C68.725 91.3401 67.3667 91.6642 66.2452 92.3124C65.1236 92.9606 64.2389 93.9892 63.5909 95.3982C61.946 98.6673 61.1235 103.853 61.1235 110.954ZM104.863 79.2504C105.611 79.2504 106.247 79.5463 106.77 80.1381C107.293 80.7299 107.555 81.4485 107.555 82.2939V88.4656C107.555 89.3111 107.293 90.0297 106.77 90.6215C106.247 91.2133 105.611 91.5092 104.863 91.5092H97.1622C96.4643 91.5092 95.8537 91.2133 95.3303 90.6215C94.8069 90.0297 94.5452 89.3111 94.5452 88.4656V82.2939C94.5452 81.4485 94.8069 80.7299 95.3303 80.1381C95.8537 79.5463 96.4643 79.2504 97.1622 79.2504H104.863ZM138.285 79.2504C138.983 79.2504 139.594 79.5463 140.117 80.1381C140.64 80.7299 140.902 81.4485 140.902 82.2939V88.4656C140.902 89.3111 140.64 90.0297 140.117 90.6215C139.594 91.2133 138.983 91.5092 138.285 91.5092H123.257V139.53C123.257 140.319 122.995 141.01 122.471 141.601C121.948 142.193 121.337 142.489 120.64 142.489H114.882C114.135 142.489 113.499 142.193 112.976 141.601C112.452 141.01 112.191 140.319 112.191 139.53V82.2939C112.191 81.4485 112.452 80.7299 112.976 80.1381C113.499 79.5463 114.135 79.2504 114.882 79.2504H138.285ZM183.221 117.38L194.362 136.74C194.611 137.191 194.748 137.698 194.773 138.262C194.798 138.826 194.698 139.333 194.474 139.784C194.25 140.235 193.926 140.601 193.502 140.883C193.078 141.165 192.642 141.306 192.194 141.306H185.464C185.016 141.306 184.592 141.179 184.193 140.925C183.794 140.672 183.495 140.347 183.296 139.953L172.081 119.747H158.847V138.347C158.847 139.136 158.585 139.826 158.061 140.418C157.538 141.01 156.927 141.306 156.23 141.306H150.622C149.924 141.306 149.314 141.01 148.79 140.418C148.267 139.826 148.005 139.136 148.005 138.347V82.2094C148.005 81.4203 148.267 80.7299 148.79 80.1381C149.314 79.5463 149.924 79.2504 150.622 79.2504H174.399C180.131 79.2504 184.779 81.0962 188.343 84.788C191.907 88.4797 193.689 93.4819 193.689 99.7945C193.689 103.853 192.904 107.333 191.334 110.236C189.764 113.138 187.458 115.322 184.418 116.788C184.218 116.901 183.894 117.07 183.446 117.295L183.221 117.38ZM158.847 91.1711V107.826H173.427C177.713 107.826 180.629 106.445 182.174 103.684C182.673 102.669 182.922 101.373 182.922 99.7945C182.922 97.1455 182.15 95.0601 180.604 93.5383C178.91 91.9601 176.617 91.1711 173.726 91.1711H158.847ZM211.633 79.2504C212.331 79.2504 212.942 79.5463 213.465 80.1381C213.989 80.7299 214.25 81.4203 214.25 82.2094V138.347C214.25 139.136 213.989 139.826 213.465 140.418C212.942 141.01 212.331 141.306 211.633 141.306H206.026C205.328 141.306 204.717 141.01 204.194 140.418C203.671 139.826 203.409 139.136 203.409 138.347V82.2094C203.409 81.4203 203.671 80.7299 204.194 80.1381C204.717 79.5463 205.328 79.2504 206.026 79.2504H211.633ZM251.336 79.2504C257.218 79.2504 261.965 81.1526 265.579 84.9571C269.193 88.7616 271 93.8624 271 100.26C271 106.657 269.218 111.757 265.654 115.562C262.09 119.366 257.317 121.269 251.336 121.269H237.204V138.347C237.204 139.136 236.943 139.826 236.419 140.418C235.896 141.01 235.285 141.306 234.588 141.306H228.98C228.282 141.306 227.671 141.01 227.148 140.418C226.625 139.826 226.363 139.136 226.363 138.347V82.2094C226.363 81.4203 226.625 80.7299 227.148 80.1381C227.671 79.5463 228.282 79.2504 228.98 79.2504H251.336ZM237.204 91.1711V109.433H250.962C254.202 109.433 256.545 108.643 257.99 107.065C259.436 105.487 260.159 103.219 260.159 100.26C260.159 97.3005 259.436 95.0883 257.99 93.6228C256.445 91.9883 254.102 91.1711 250.962 91.1711H237.204Z" fill="#FEFEFE"/>
<path d="M44.5596 169.356C44.6154 169.53 44.5316 169.625 44.3921 169.625H43.6107C43.4711 169.625 43.4013 169.53 43.3455 169.356L42.8153 167.305H39.1313L38.6011 169.356C38.5592 169.53 38.4755 169.625 38.336 169.625H37.5545C37.415 169.625 37.3452 169.53 37.3871 169.356L40.2058 158.832C40.2477 158.674 40.3454 158.58 40.471 158.58H41.4617C41.5873 158.58 41.685 158.674 41.7268 158.832L44.5596 169.356ZM39.4383 166.106H42.5083L40.9733 160.252L39.4383 166.106ZM57.596 163.739C57.7495 163.739 57.8332 163.85 57.8332 164.007V166.422C57.8332 168.52 56.8703 169.704 55.0284 169.704H53.9539C52.1119 169.704 51.1491 168.52 51.1491 166.422V161.783C51.1491 159.684 52.1119 158.501 53.9539 158.501H55.0284C56.7866 158.501 57.7495 159.574 57.8332 161.562C57.8332 161.735 57.7495 161.83 57.596 161.83H56.8703C56.7168 161.83 56.6192 161.735 56.6192 161.562C56.5633 160.268 56.0749 159.747 55.0284 159.747H53.9539C52.8236 159.747 52.3631 160.331 52.3631 161.783V166.422C52.3631 167.873 52.8236 168.457 53.9539 168.457H55.0284C56.1587 168.457 56.6192 167.873 56.6192 166.422V164.923H55.3354C55.1819 164.923 55.0982 164.812 55.0982 164.654V164.007C55.0982 163.85 55.1819 163.739 55.3354 163.739H57.596ZM70.2975 159.826H66.0972V163.581H69.3067C69.4463 163.581 69.516 163.66 69.516 163.818V164.591C69.516 164.749 69.4463 164.828 69.3067 164.828H66.0972V168.378H70.3672C70.5068 168.378 70.5766 168.457 70.5766 168.615V169.388C70.5766 169.546 70.5068 169.625 70.3672 169.625H65.0925C64.953 169.625 64.8832 169.546 64.8832 169.388V158.816C64.8832 158.659 64.953 158.58 65.0925 158.58H70.2975C70.437 158.58 70.5068 158.659 70.5068 158.816V159.589C70.5068 159.747 70.437 159.826 70.2975 159.826ZM83.7386 158.58C83.8781 158.58 83.9479 158.659 83.9479 158.816V169.388C83.9479 169.546 83.8781 169.625 83.7386 169.625H82.5106C82.399 169.625 82.3152 169.577 82.2594 169.451L78.6313 160.584V169.388C78.6313 169.546 78.5615 169.625 78.422 169.625H77.6266C77.4871 169.625 77.4173 169.546 77.4173 169.388V158.816C77.4173 158.659 77.4871 158.58 77.6266 158.58H78.8546C78.9662 158.58 79.0499 158.627 79.1057 158.753L82.7339 167.605V158.816C82.7339 158.659 82.8036 158.58 82.9432 158.58H83.7386ZM97.4448 166.264C97.5983 166.264 97.682 166.358 97.682 166.532C97.5983 168.615 96.6494 169.704 94.8772 169.704H93.8027C91.9608 169.704 90.9979 168.52 90.9979 166.422V161.783C90.9979 159.684 91.9608 158.501 93.8027 158.501H94.8772C96.6494 158.501 97.5983 159.589 97.682 161.672C97.682 161.846 97.5983 161.94 97.4448 161.94H96.7192C96.5657 161.94 96.468 161.846 96.468 161.672C96.4122 160.268 95.9377 159.747 94.8772 159.747H93.8027C92.6724 159.747 92.2119 160.331 92.2119 161.783V166.422C92.2119 167.873 92.6724 168.457 93.8027 168.457H94.8772C95.9377 168.457 96.4122 167.936 96.468 166.532C96.468 166.358 96.5657 166.264 96.7192 166.264H97.4448ZM104.732 158.816C104.732 158.659 104.802 158.58 104.941 158.58H105.751C105.89 158.58 105.96 158.659 105.96 158.816V169.388C105.96 169.546 105.89 169.625 105.751 169.625H104.941C104.802 169.625 104.732 169.546 104.732 169.388V158.816ZM119.862 169.356C119.917 169.53 119.834 169.625 119.694 169.625H118.913C118.773 169.625 118.703 169.53 118.648 169.356L118.117 167.305H114.433L113.903 169.356C113.861 169.53 113.778 169.625 113.638 169.625H112.857C112.717 169.625 112.647 169.53 112.689 169.356L115.508 158.832C115.55 158.674 115.647 158.58 115.773 158.58H116.764C116.889 158.58 116.987 158.674 117.029 158.832L119.862 169.356ZM114.74 166.106H117.81L116.275 160.252L114.74 166.106ZM139.85 158.58C141.636 158.58 142.585 159.684 142.585 161.704V166.5C142.585 168.52 141.636 169.625 139.85 169.625H136.864H136.362C136.222 169.625 136.152 169.546 136.152 169.388V158.816C136.152 158.659 136.222 158.58 136.362 158.58H137.157H139.85ZM141.371 166.5V161.704C141.371 160.331 140.911 159.826 139.85 159.826H137.367V168.378H139.85C140.911 168.378 141.371 167.873 141.371 166.5ZM154.91 159.826H150.71V163.581H153.919C154.059 163.581 154.129 163.66 154.129 163.818V164.591C154.129 164.749 154.059 164.828 153.919 164.828H150.71V168.378H154.98C155.119 168.378 155.189 168.457 155.189 168.615V169.388C155.189 169.546 155.119 169.625 154.98 169.625H149.705C149.566 169.625 149.496 169.546 149.496 169.388V158.816C149.496 158.659 149.566 158.58 149.705 158.58H154.91C155.05 158.58 155.119 158.659 155.119 158.816V159.589C155.119 159.747 155.05 159.826 154.91 159.826ZM171.159 158.848C171.117 158.674 171.187 158.58 171.327 158.58H172.108C172.248 158.58 172.331 158.674 172.373 158.848L174.745 167.952L177.132 158.848C177.173 158.674 177.243 158.58 177.383 158.58H178.164C178.304 158.58 178.387 158.674 178.346 158.848L175.513 169.372C175.471 169.53 175.373 169.625 175.248 169.625H174.243C174.117 169.625 174.02 169.53 173.978 169.372L171.159 158.848ZM185.089 158.816C185.089 158.659 185.158 158.58 185.298 158.58H186.107C186.247 158.58 186.317 158.659 186.317 158.816V169.388C186.317 169.546 186.247 169.625 186.107 169.625H185.298C185.158 169.625 185.089 169.546 185.089 169.388V158.816ZM200.218 169.356C200.274 169.53 200.19 169.625 200.051 169.625H199.269C199.13 169.625 199.06 169.53 199.004 169.356L198.474 167.305H194.79L194.26 169.356C194.218 169.53 194.134 169.625 193.995 169.625H193.213C193.074 169.625 193.004 169.53 193.046 169.356L195.864 158.832C195.906 158.674 196.004 158.58 196.13 158.58H197.12C197.246 158.58 197.344 158.674 197.385 158.832L200.218 169.356ZM195.097 166.106H198.167L196.632 160.252L195.097 166.106ZM206.891 167.905C206.975 167.794 207.087 167.81 207.185 167.921C207.505 168.236 207.938 168.473 208.538 168.473C209.961 168.473 210.464 167.479 210.464 166.106V158.816C210.464 158.659 210.534 158.58 210.673 158.58H211.468C211.608 158.58 211.678 158.659 211.678 158.816V166.185C211.678 168.331 210.534 169.735 208.538 169.735C207.589 169.735 206.85 169.388 206.319 168.804C206.222 168.709 206.25 168.599 206.333 168.489L206.891 167.905ZM224.282 159.826H220.081V163.581H223.291C223.43 163.581 223.5 163.66 223.5 163.818V164.591C223.5 164.749 223.43 164.828 223.291 164.828H220.081V168.378H224.351C224.491 168.378 224.561 168.457 224.561 168.615V169.388C224.561 169.546 224.491 169.625 224.351 169.625H219.077C218.937 169.625 218.867 169.546 218.867 169.388V158.816C218.867 158.659 218.937 158.58 219.077 158.58H224.282C224.421 158.58 224.491 158.659 224.491 158.816V159.589C224.491 159.747 224.421 159.826 224.282 159.826ZM234.527 163.266C236.062 163.645 237.625 164.213 237.625 166.469C237.625 168.567 236.662 169.704 234.82 169.704H233.788C232.029 169.704 231.067 168.631 230.983 166.69C230.983 166.516 231.067 166.422 231.22 166.422H231.946C232.099 166.422 232.197 166.516 232.197 166.69C232.253 167.936 232.727 168.457 233.788 168.457H234.82C235.951 168.457 236.411 167.921 236.411 166.469C236.411 165.017 235.546 164.812 234.499 164.528L233.885 164.37C232.239 163.96 231.094 163.376 231.094 161.372C231.094 159.416 232.085 158.501 233.913 158.501H234.597C236.327 158.501 237.248 159.574 237.332 161.467C237.346 161.641 237.248 161.735 237.095 161.735H236.369C236.23 161.735 236.132 161.641 236.118 161.467C236.062 160.252 235.616 159.747 234.597 159.747H233.913C232.797 159.747 232.308 160.047 232.308 161.372C232.308 162.65 232.811 162.824 233.913 163.108L234.527 163.266Z" fill="#FEFEFE"/>
</g>
<defs>
<filter id="filter0_d_28_72" x="0" y="0" width="275" height="190" filterUnits="userSpaceOnUse" color-interpolation-filters="sRGB">
<feFlood flood-opacity="0" result="BackgroundImageFix"/>
<feColorMatrix in="SourceAlpha" type="matrix" values="0 0 0 0 0 0 0 0 0 0 0 0 0 0 0 0 0 0 127 0" result="hardAlpha"/>
<feOffset dy="4"/>
<feGaussianBlur stdDeviation="2"/>
<feComposite in2="hardAlpha" operator="out"/>
<feColorMatrix type="matrix" values="0 0 0 0 0 0 0 0 0 0 0 0 0 0 0 0 0 0 0.25 0"/>
<feBlend mode="normal" in2="BackgroundImageFix" result="effect1_dropShadow_28_72"/>
<feBlend mode="normal" in="SourceGraphic" in2="effect1_dropShadow_28_72" result="shape"/>
</filter>
<clipPath id="clip0_28_72">
<rect width="267" height="182" fill="white" transform="translate(4)"/>
</clipPath>
</defs>
</svg>
